<?xml version="1.0" encoding="utf-8"?>
<!-- Generator: Adobe Illustrator 21.0.0, SVG Export Plug-In . SVG Version: 6.00 Build 0)  -->
<svg version="1.1" id="Layer_1" xmlns="http://www.w3.org/2000/svg" xmlns:xlink="http://www.w3.org/1999/xlink" x="0px" y="0px"
	 viewBox="0 0 400 300" style="enable-background:new 0 0 400 300;" xml:space="preserve">
<title>Gap_logo</title>
<path d="M64,34.2c-5.9,0-24.8,1.9-24.8,26.1v171.9c0,0.2-1,17,8.1,26.7c4.6,4.7,11,7.3,17.6,6.9c6.5-0.1,12.7-2.6,17.5-7l0,0
	c1.2-0.6,2.7-0.6,3.9,0c1.5,1.3,2.3,3.2,2.1,5.1h3.3V156.1h8.1v-3H65.4v3h10.1v92.6c0.4,4-0.6,8.1-3,11.4c-2,2.1-4.8,3.1-7.6,3
	c-2.4,0.1-4.7-0.9-6.4-2.6c-3.2-3.3-4.7-9.5-4.5-18.4c0-0.2,0-0.4,0-0.5V53.4c0-0.7,0.7-16.3,9.4-16.3s19,21.8,22.5,63.4v6.6h3V36.1
	h-3v5.8l-0.3,0.2c-0.7,0.5-1.5,0.8-2.3,0.8c-1.1-0.3-2.2-1-3-1.8C75.9,37,70.1,34.6,64,34.2z M298.5,264.1h37.3v-3H323v-89.8h16
	c11.3,0.7,21.1-7.8,21.8-19.2c0-0.2,0-0.5,0-0.7V60.2c0-22-28.1-22.4-28.4-22.4h-34.7v3h8.9v220.4h-8.2v3L298.5,264.1z M204.7,263.8
	h34.4v-3H230L205.3,38h-13.4c-1.2,11.7-22,210.8-22,213.5c-0.2,5.1-4.2,9.2-9.3,9.4h-1.8v3h24v-3h-1.3c-4.9-0.2-8.7-4.4-8.5-9.3
	c0-0.2,0-0.4,0-0.6l8.3-80.4h22.4l9.7,90.2h-8.9v3L204.7,263.8z M323.8,167.6h-0.6V41.1h9.5c11,0,12.7,14.6,12.7,14.8v98.4
	c0,12.9-9.7,13.2-9.8,13.2L323.8,167.6L323.8,167.6z M203.8,167H182v-0.6l10.7-101.3L203.8,167z"/>
</svg>
