<?xml version="1.0" encoding="utf-8"?>
<!-- Generator: Adobe Illustrator 14.0.0, SVG Export Plug-In . SVG Version: 6.00 Build 43363)  -->
<!DOCTYPE svg PUBLIC "-//W3C//DTD SVG 1.1//EN" "http://www.w3.org/Graphics/SVG/1.1/DTD/svg11.dtd">
<svg version="1.1" id="prada" xmlns="http://www.w3.org/2000/svg" xmlns:xlink="http://www.w3.org/1999/xlink" x="0px" y="0px"
	 width="400px" height="300px" viewBox="0 0 400 300" enable-background="new 0 0 400 300" xml:space="preserve">
<path id="p" fill-rule="evenodd" clip-rule="evenodd" d="M56.246,149.036c-3.607,0-9.653-0.165-9.653-0.165v-26.534l11.027,0.093
	c0,0,12.19,0.398,12.19,13.348C69.81,148.741,59.845,149.036,56.246,149.036 M60.454,118.614H26.003c0,0,2.431,0.855,3.843,4.099
	c0.776,1.795,0.946,4.417,0.946,7.802v28.527c0,0,1.493,13.774-5.668,13.774h26.573c0,0-3.479-0.557-4.845-6.391
	c-0.401-1.707-0.209-3.823-0.209-6.584v-7.045l14.749,0.189c0,0,23.136,1.092,23.136-16.906
	C84.528,120.02,71.045,118.614,60.454,118.614"/>
<path id="r" fill-rule="evenodd" clip-rule="evenodd" d="M108.354,148.674l0.087-26.286h11.774c0,0,11.284,0.812,11.284,13.67
	c0,12.866-11.002,12.787-14.455,12.787C113.594,148.845,108.354,148.674,108.354,148.674 M119.405,152.61c0,0,1.853,0.1,4.154,0.1
	c2.308,0,22.58,1.875,22.675-17.867c0.084-17.096-20.794-16.229-20.794-16.229H86.325c6.015,0,6.344,10.029,6.344,10.029v30.117
	c0,3.361,0.22,6.381-0.284,8.327c-1.511,5.894-5.102,5.729-5.102,5.729h27.383c-2.77,0.076-4.518-2.252-5.464-4.223
	c-1.229-3.205-0.849-9.834-0.849-9.834v-5.494l27.993,19.551h21.791l-21.353-18.329C123.658,156.839,119.405,152.61,119.405,152.61"
	/>
<path id="a_1_" fill-rule="evenodd" clip-rule="evenodd" d="M180.985,152.538l8.292-16.076l9.472,16.076H180.985z M186.766,131.924
	c0,0-10.898,21.033-16.158,31.018c-4.67,8.882-8.239,9.194-9.165,9.898h14.275c-4.812-3.331-0.159-10.15-0.159-10.15l2.986-5.81
	h22.671l3.21,5.508c1.965,3.562,3.165,5.008,3.021,6.58c-0.264,2.961-3.591,4.032-3.591,4.032h30.264
	c-1.582-0.15-4.237-2.563-5.693-3.656c-5.198-3.9-8.099-10.41-8.099-10.41s-16.916-27.475-20.599-34.177
	c-3.697-6.706-3.702-6.136-3.702-6.136h-23.629c0,0,4.583,2.436,7.746,5.503C183.926,127.793,186.766,131.924,186.766,131.924"/>
<path id="a" fill-rule="evenodd" clip-rule="evenodd" d="M322.408,152.538l8.291-16.076l9.475,16.076H322.408z M328.185,131.924
	c0,0-10.891,21.033-16.154,31.018c-4.67,8.882-8.245,9.194-9.161,9.898h14.271c-4.813-3.331-0.166-10.15-0.166-10.15l2.988-5.81
	h22.673l3.216,5.508c1.971,3.562,3.163,5.008,3.02,6.58c-0.275,2.961-3.587,4.032-3.587,4.032h30.26
	c-1.581-0.15-4.241-2.563-5.697-3.656c-5.197-3.9-8.096-10.41-8.096-10.41s-16.92-27.475-20.608-34.177
	c-3.687-6.706-3.697-6.136-3.697-6.136h-23.627c0,0,4.586,2.436,7.752,5.503C325.344,127.793,328.185,131.924,328.185,131.924"/>
<path id="d" fill-rule="evenodd" clip-rule="evenodd" d="M268.484,122.429c13.688,0,14.642,10.063,14.642,10.063
	s0.459,4.688,0.459,21.621c0,6.741-2.447,10.719-6.131,13.251c-5.292,2.727-15.115,1.411-15.115,1.411l0.186-46.347
	C264.393,122.279,266.937,122.382,268.484,122.429 M295.117,127.132c-9.332-8.896-24.108-8.519-24.108-8.519l-30.214-0.131
	c5.195,1.693,5.471,8.553,5.471,8.553v33.007c0,3.214,0.095,5.407-0.368,7.23c-1.492,5.916-5.059,5.736-5.059,5.736h27.099
	c0,0,2.746,0.08,6.021-0.101c9.82-0.501,28.717-4.418,28.717-29.325C302.676,136.722,298.975,130.805,295.117,127.132"/>
</svg>
