<?xml version="1.0" encoding="utf-8"?>
<!-- Generator: Adobe Illustrator 14.0.0, SVG Export Plug-In . SVG Version: 6.00 Build 43363)  -->
<!DOCTYPE svg PUBLIC "-//W3C//DTD SVG 1.1//EN" "http://www.w3.org/Graphics/SVG/1.1/DTD/svg11.dtd">
<svg version="1.1"
	 id="puma" xmlns:rdf="http://www.w3.org/1999/02/22-rdf-syntax-ns#" xmlns:dc="http://purl.org/dc/elements/1.1/" xmlns:cc="http://creativecommons.org/ns#" xmlns:svg="http://www.w3.org/2000/svg" xmlns:inkscape="http://www.inkscape.org/namespaces/inkscape" xmlns:sodipodi="http://sodipodi.sourceforge.net/DTD/sodipodi-0.dtd" inkscape:version="0.48.2 r9819" sodipodi:docname="Sustainability_Report_Perspective.pdf"
	 xmlns="http://www.w3.org/2000/svg" xmlns:xlink="http://www.w3.org/1999/xlink" x="0px" y="0px" width="400px" height="300px"
	 viewBox="0 0 400 300" enable-background="new 0 0 400 300" xml:space="preserve">
<path id="animal" inkscape:connector-curvature="0" fill="#E63129" d="M214.231,66.336c-1.122,0.165-2.2,4.298-4.369,6.453
	c-1.585,1.551-3.565,1.458-4.616,3.378c-0.399,0.714-0.271,1.941-0.722,3.113c-0.888,2.354-4.002,2.563-4.002,5.125
	c-0.01,2.767,2.595,3.294,4.857,5.261c1.765,1.578,1.935,2.667,4.07,3.436c1.826,0.617,4.54-1.408,6.983-0.679
	c2.003,0.595,3.923,1.025,4.378,3.085c0.399,1.902-0.029,4.843-2.462,4.503c-0.819-0.094-4.377-1.288-8.74-0.823
	c-5.273,0.6-11.285,2.318-11.873,8.196c-0.325,3.28,3.739,7.153,7.662,6.366c2.71-0.53,1.429-3.731,2.901-5.283
	c1.938-1.993,12.911,6.947,23.106,6.947c4.294,0,7.488-1.086,10.659-4.407c0.296-0.255,0.658-0.797,1.115-0.833
	c0.434,0.036,1.188,0.461,1.438,0.642c8.209,6.601,14.421,19.846,44.608,19.998c4.247,0.024,9.08,2.053,13.032,5.654
	c3.521,3.255,5.578,8.326,7.582,13.464c3.023,7.712,8.434,15.214,16.644,23.563c0.447,0.447,7.207,5.701,7.749,6.093
	c0.082,0.06,0.58,1.243,0.407,1.903c-0.199,5.01-0.929,19.564,9.924,20.225c2.652,0.134,1.96-1.73,1.96-3.014
	c-0.007-2.535-0.47-5.056,0.866-7.653c1.826-3.569-3.876-5.211-3.71-12.931c0.118-5.756-4.718-4.774-7.168-9.16
	c-1.414-2.54-2.671-3.885-2.58-6.993c0.553-17.484-3.722-28.975-5.851-31.797c-1.663-2.129-3.039-2.974-1.52-3.958
	c9.059-5.987,11.111-11.549,11.111-11.549c4.817-11.321,9.147-21.661,15.12-26.214c1.202-0.942,4.288-3.245,6.18-4.147
	c5.574-2.627,8.506-4.222,10.127-5.796c2.559-2.493,4.586-7.7,2.129-10.854c-3.055-3.895-8.333-0.805-10.66,0.577
	c-16.651,9.881-19.104,27.312-24.873,37.322c-4.602,7.998-12.082,13.873-18.772,14.353c-5.01,0.372-10.42-0.643-15.8-3.006
	c-13.09-5.738-20.249-13.147-21.945-14.457c-3.515-2.714-30.813-29.516-52.935-30.61c0,0-2.746-5.5-3.437-5.586
	c-1.616-0.21-3.273,3.28-4.46,3.688C217.234,70.298,215.358,66.152,214.231,66.336"/>
<path id="u" inkscape:connector-curvature="0" fill="#E63129" d="M116.855,226.289c-2.083-0.049-3.852-1.756-3.852-3.868
	l0.009-69.001H90.268v76.057c0,3.731,3.021,6.771,6.727,6.771h39.745c3.731,0,6.716-3.039,6.716-6.771V153.42h-22.721l-0.018,69.001
	C120.718,224.533,118.948,226.24,116.855,226.289"/>
<path id="m" inkscape:connector-curvature="0" fill="#E63129" d="M192.99,153.42h-34.414c-4.078,0-7.395,3.313-7.395,7.428v75.398
	h22.765v-69.163c0.014-2.117,1.729-3.798,3.847-3.798c2.122,0,3.829,1.641,3.876,3.74v69.221h22.666v-69.221
	c0.029-2.101,1.733-3.74,3.855-3.74c2.1,0,3.839,1.681,3.854,3.798v69.163h22.766v-75.398c0-4.113-3.328-7.428-7.398-7.428H192.99"
	/>
<path id="p" inkscape:connector-curvature="0" fill="#E63129" d="M75.1,215.435H52.127v20.813H29.398V153.42h45.846
	c4.104,0,7.31,3.335,7.31,7.46v47.088C82.553,212.105,79.222,215.435,75.1,215.435z M59.84,167.228
	c0.018-2.302-1.858-3.94-3.851-3.94h-3.862v41.893h3.861c2.006,0,3.868-1.595,3.85-3.891v-34.062"/>
<path id="a" inkscape:connector-curvature="0" fill="#E63129" d="M272.967,236.246v-20.795h-7.728v20.795h-22.718v-75.398
	c0-4.113,3.315-7.428,7.395-7.428h38.376c4.086,0,7.397,3.313,7.397,7.428v75.398H272.967z M272.967,205.193v-38.139
	c-0.056-2.107-1.751-3.729-3.873-3.729c-2.101,0-3.832,1.687-3.854,3.789v38.076L272.967,205.193"/>
</svg>
