<?xml version="1.0" encoding="utf-8"?>
<!-- Generator: Adobe Illustrator 19.0.0, SVG Export Plug-In . SVG Version: 6.00 Build 0)  -->
<svg version="1.1" id="layer" xmlns="http://www.w3.org/2000/svg" xmlns:xlink="http://www.w3.org/1999/xlink" x="0px" y="0px"
	 viewBox="-153 -46 652 652" style="enable-background:new -153 -46 652 652;" xml:space="preserve">
<path d="M-88.3,258.1c3.6,0,7.6,0,10.1,4c1.1,1.8,1.7,3.8,1.6,5.9c0.1,2.1-0.6,4.2-1.9,5.9c-3.1,4.1-8.6,4.2-12.9,4.2h-27.2v-20
	H-88.3z M-126.3,306.6h7.8v-22H-92l18.6,22h10.2l-20.3-23.2c3.8-0.6,14.8-2.4,14.8-15.6c0.2-4.5-1.6-8.8-4.9-11.8
	c-4.4-3.4-9.9-5-15.5-4.4h-37.3V306.6z"/>
<path d="M6.3,286.6H-21l11.6-22.7c0.5-1,0.9-1.9,1.3-2.9c0.4-1,0.6-1.5,0.8-2.3c0.2,0.7,0.4,1.4,0.6,2.1c0.4,0.9,0.9,1.9,1.2,2.8
	L6.3,286.6z M-39.7,306.6h8.7l6.7-13.6h34l6.7,13.6h9l-28.4-55.1h-8.3L-39.7,306.6z"/>
<path d="M55.2,251.5h10.8l17.2,35.9c2.7,5.9,3.2,7.1,5.3,12.3c1.4-4.1,3.1-8.2,5-12.1l17.4-36.1h10.6v55h-7.4v-31.6
	c-0.2-5.6,0-11.3,0.7-16.9c-1.2,3.3-2.6,6.5-4.3,9.6l-18.9,38.9h-7.2l-17.2-35.7c-2.1-4.1-3.9-8.3-5.5-12.5
	c0.5,4.6,0.7,9.3,0.6,13.9v34.3h-7.1V251.5z"/>
<path d="M162.7,277.9v-19.9h24.6c4.3-0.6,8.7,0.6,12.2,3.2c3.7,4.1,3.4,10.4-0.7,14c-0.3,0.2-0.6,0.5-0.9,0.7
	c-3,1.6-6.4,2.3-9.8,1.9H162.7z M154.8,251.5v55.1h7.9v-22h26.5c5.5,0,13.7,0,18.5-6.7c1.9-2.8,2.9-6.1,2.9-9.5
	c0-4.7-1.9-9.1-5.4-12.2c-4.2-3.8-9.5-4.6-16.7-4.6H154.8L154.8,251.5z"/>
<path d="M272.4,286.6h-27.2l11.6-22.7c0.5-1,0.9-1.9,1.3-2.9c0.4-1,0.5-1.5,0.8-2.3c0.2,0.7,0.4,1.4,0.6,2.1
	c0.4,0.9,0.9,1.9,1.2,2.8L272.4,286.6z M226.4,306.6h8.8l6.7-13.6h34l6.7,13.6h9l-28.4-55.1h-8.3L226.4,306.6z"/>
<path d="M367.1,299.1c-1,0.9-1.9,1.8-3,2.7c-6.2,4.1-13.5,6.3-21,6.1c-18.9,0-31.5-13.2-31.5-29c0-5.6,1.7-11.1,4.8-15.8
	c6.7-8.7,17.2-13.5,28.1-13c8.6-0.2,17.1,2.5,23.9,7.9c2.2,1.9,4,4.2,5.4,6.7l-7.6,2.3c-1-1.5-2.1-2.9-3.5-4.1
	c-4.9-4-11.1-6.1-17.4-6c-13.6,0-25.1,7.6-25.1,21.5c0,4.5,1.3,9,3.8,12.8c5.9,9.3,17.2,10.1,21,10.1c6.8,0.1,13.3-2.5,18.1-7.2
	c2.7-2.7,4.3-6.3,4.6-10.1h-24.3v-6.5H374v29.1h-6.8v-7.6L367.1,299.1z"/>
<path d="M408.4,251.5h50.9v6.8h-43.1v16.4h42v6.5h-42v18.6h45v6.8h-52.9v-55.1H408.4z"/>
<path d="M469.5,251.4c-2.3,0-4.2,1.9-4.2,4.2c0,2.3,1.9,4.2,4.2,4.2c2.3,0,4.2-1.9,4.2-4.2C473.8,253.3,471.9,251.4,469.5,251.4
	C469.6,251.4,469.6,251.4,469.5,251.4z M469.5,258.9c-1.9,0-3.5-1.5-3.5-3.4c0-1.9,1.5-3.5,3.4-3.5c1.9,0,3.5,1.5,3.5,3.4
	c0,0,0,0.1,0,0.1c0.1,1.9-1.3,3.4-3.2,3.6c-0.2,0-0.3,0-0.5,0L469.5,258.9z"/>
<path d="M470.1,255.8c0.7,0,1.3-0.5,1.3-1.2c0,0,0-0.1,0-0.1c0-0.8-0.5-1.4-1.3-1.4c-0.1,0-0.3,0-0.4,0h-1.9v4.8h0.8v-2.1h0.8
	l1.2,2.1h0.8L470.1,255.8z M468.5,255.2v-1.5h1c0.5,0,1.1,0,1.1,0.7s-0.6,0.8-1.2,0.8L468.5,255.2L468.5,255.2z"/>
</svg>
